<svg xmlns="http://www.w3.org/2000/svg" version="1.1" xmlns:xlink="http://www.w3.org/1999/xlink" width="95.23" height="95.26"><svg id="SvgjsSvg1003" data-name="Capa 2" xmlns="http://www.w3.org/2000/svg" viewBox="0 0 95.23 95.26">
  <defs>
    <style>
      .cls-1 {
        fill: #5f342d;
      }

      .cls-2 {
        fill: #522e25;
      }

      .cls-3 {
        fill: #8d625f;
      }

      .cls-4 {
        fill: #64463e;
      }

      .cls-5 {
        fill: #8b4648;
      }

      .cls-6 {
        fill: #884043;
      }

      .cls-7 {
        fill: #efb1bf;
      }

      .cls-8 {
        fill: #5c352e;
      }

      .cls-9 {
        fill: #694c45;
      }

      .cls-10 {
        fill: #815d58;
      }

      .cls-11 {
        fill: #a07777;
      }

      .cls-12 {
        fill: #eb9daf;
      }

      .cls-13 {
        fill: #5a332b;
      }

      .cls-14 {
        fill: #6d5049;
      }

      .cls-15 {
        fill: #a07f7d;
      }

      .cls-16 {
        fill: #795650;
      }

      .cls-17 {
        fill: #6c4f47;
      }

      .cls-18 {
        fill: #663631;
      }

      .cls-19 {
        fill: #7e615a;
      }

      .cls-20 {
        fill: #7d5650;
      }

      .cls-21 {
        fill: #54372d;
      }

      .cls-22 {
        fill: #9d7270;
      }

      .cls-23 {
        fill: #956a67;
      }

      .cls-24 {
        fill: #572f27;
      }

      .cls-25 {
        fill: #84625d;
      }

      .cls-26 {
        fill: #713a35;
      }

      .cls-27 {
        fill: #68463d;
      }

      .cls-28 {
        fill: #964c50;
      }

      .cls-29 {
        fill: #5e443a;
      }

      .cls-30 {
        fill: #765650;
      }

      .cls-31 {
        fill: #a9535e;
      }

      .cls-32 {
        fill: #795b54;
      }

      .cls-33 {
        fill: #74544d;
      }

      .cls-34 {
        fill: #723735;
      }

      .cls-35 {
        fill: #9c6062;
      }

      .cls-36 {
        fill: #796059;
      }

      .cls-37 {
        fill: #69463d;
      }

      .cls-38 {
        fill: #67473f;
      }

      .cls-39 {
        fill: #925454;
      }

      .cls-40 {
        fill: #785852;
      }

      .cls-41 {
        fill: #684c44;
      }

      .cls-42 {
        fill: #70524a;
      }

      .cls-43 {
        fill: #61372f;
      }

      .cls-44 {
        fill: #957571;
      }

      .cls-45 {
        fill: #8b6965;
      }

      .cls-46 {
        fill: #61433b;
      }

      .cls-47 {
        fill: #5f2c25;
      }

      .cls-48 {
        fill: #d86982;
      }

      .cls-49 {
        fill: #7d3d3d;
      }

      .cls-50 {
        fill: #76524b;
      }

      .cls-51 {
        fill: #874143;
      }

      .cls-52 {
        fill: #673b35;
      }

      .cls-53 {
        fill: #944b4f;
      }

      .cls-54 {
        fill: #75524c;
      }

      .cls-55 {
        fill: #503329;
      }

      .cls-56 {
        fill: #b35563;
      }

      .cls-57 {
        fill: #90716d;
      }

      .cls-58 {
        fill: #92464b;
      }

      .cls-59 {
        fill: #a1555a;
      }

      .cls-60 {
        fill: #e4718c;
      }

      .cls-61 {
        fill: #773d39;
      }

      .cls-62 {
        fill: #ce6178;
      }

      .cls-63 {
        fill: #893f42;
      }

      .cls-64 {
        fill: #4d2f25;
      }

      .cls-65 {
        fill: #7f5e58;
      }

      .cls-66 {
        fill: #543027;
      }

      .cls-67 {
        fill: #76504a;
      }

      .cls-68 {
        fill: #7a534c;
      }

      .cls-69 {
        fill: #a34f58;
      }

      .cls-70 {
        fill: #984c51;
      }

      .cls-71 {
        fill: #896b65;
      }

      .cls-72 {
        fill: #e3718b;
      }

      .cls-73 {
        fill: #96494f;
      }

      .cls-74 {
        fill: #542e25;
      }

      .cls-75 {
        fill: #7a5f59;
      }

      .cls-76 {
        fill: #883f42;
      }

      .cls-77 {
        fill: #6e4e47;
      }

      .cls-78 {
        fill: #7f5651;
      }
    </style>
  </defs>
  <g id="SvgjsG1002" data-name="Capa 1">
    <g>
      <path class="cls-7" d="M56.17,2.47c.6-.33,1.31-.54,1.8,0l1.2.6c.16-.52.36-.51.6,0,1.55-.74,3.83.37,4.8,1.8.2-.52.4-.52.6,0,1.43-.45,3.55.42,4.2,1.8,1.05-.48,2.8.64,3,1.8,3.33,1.21,6.87,4.03,9,7.2,1.35.64,2.96,2.18,3,3.6,2.13,1.66,4.2,5.17,4.8,7.8,1.59,2.54,2.99,5.34,4.2,8.4.72.62.41.65.6,1.2-.78-.23-.77,1.02.02,3.73.83,3.84.82,7.4-.02,10.67.98.89.48,4.03-.6,4.8.25.2.25.4,0,.6.15,3.98-1.76,9.21-4.2,12,.37.78.28,1.26-.6,1.2.84,1.14-1.1,4.08-2.4,4.2-1.06,2.21-2.26,4.41-3.6,6.6-.77.81-1.69,1.17-2.4,1.8-1.15-.6-2.09,1.36-2.4,2.4-.18.12-.32.49-.6.6l-1.2-.6c-1.5,1.93-4.72,4.18-7.2,4.8.1.73-.5.93-1.8.6-1.9,2.01-5.57,2.92-8.4,3-1.3.54-1.3.94,0,1.2-2.05.49-2.85.38-4.8.6-.54-.5-1.14-.7-1.8-.6-2.22.54-5.55.76-7.8,0-.7.28-1.3.28-1.8,0-2.47.12-4.27-.28-5.4-1.2-.27.33-.67.33-1.2,0-3.64.14-8.03-2.19-11.32-4.12s-7.65-4.68-9.08-7.88l-.6-.6c-.17.52-.37.52-.6,0-.77-.11-1.44-1.05-1.8-1.8-.52-.17-.52-.37,0-.6l-.6-.6c-3.13-2.34-5.34-5.89-6.6-9.6-1-.38-1.83-2.76-1.2-3.6-1.32-1.69-1.72-3.29-1.2-4.8-.86.45-1.15-.49-.6-1.2-1.8-3.47-1.79-8.73-1.2-12.6-.32-.79-.32-1.39,0-1.8-.26-3.34.34-6.34,1.8-9-.31-1.58.21-3.64,1.8-4.2-.15-2.29,1.95-6.16,3.6-7.8,1.01-2.15,2.21-4.15,3.6-6,.18-.33.34-.74.6-1.2,3.59-2.8,7.39-5.6,11.4-8.4.14-.21-.09-.56.6-1.2,1.7.37.79.7.59.3-.19-.38,7-3.03,7.81-2.7,2.14-1.45,4.74-2.05,7.8-1.8,4.13-1.77,10.39-1.25,14.92-.23.28.06.49.41.68.83Z"></path>
      <path class="cls-54" d="M15.38,81.08c5.12,5.44,13.15,10.12,20.4,12,.52.31.92.31,1.2,0,1.84.4,3.84.45,5.4,1.2-.88.23-1.88.43-3,.6-10.17-1.62-17.99-6.02-25.2-13.2-.47-.62-.47-1.02,0-1.2h.6l.6.6Z"></path>
      <path class="cls-32" d="M58.57,1.87c-.66.21-1.46.41-2.4.6-5.5-.77-10.02-1.35-15.6-.6l-1.8-.6c6.16-1.81,13.87-1.75,19.8.6Z"></path>
      <path class="cls-46" d="M23.77,7.27c-1.11,1.65-7.88,7.23-10.13,8.77-.96.66-1.4,1.64-1.27-.37,1.69-3,7.82-7.8,11.4-8.4Z"></path>
      <path class="cls-71" d="M.98,45.67c.56,4.03.27,8.25,1.2,12.6q-.18.23,0,0c.05.21.48.67.6,1.2.15,1.6-.05,1.78-1.2.6C-.4,52.54-.15,50.22.38,42.67l.6,3Z"></path>
      <path class="cls-33" d="M93.97,36.67c1.21,3.44,1.38,10.67,1.2,14.4-.19,1.59-.74,1.52-1.2,0,.3-4.61-.62-9.05-1.13-13.58-.18-1.58-.32-1.79,1.13-.82Z"></path>
      <path class="cls-3" d="M93.97,57.68c-.12,4.09-2.55,8.35-4.2,12-.53.13-.73-.27-.6-1.2,1.57-3.34,3.54-8.43,4.2-12,.34.01.54.41.6,1.2Z"></path>
      <path class="cls-75" d="M11.78,77.48l.6.6v.6c-.18.28-.38.27-.6,0-3.22-3.77-4.83-4.16-6.6-9.6-.5-.64-.5-1.04,0-1.2,2.06,3.33,4.2,6.49,6.6,9.6Z"></path>
      <path class="cls-40" d="M8.18,22.87c-.63,2.37-2.64,5.28-3.6,7.8-.64.86-1.04,1.17-1.2,0,1.71-4.27,2.16-5.63,4.8-9.6.88.03.88.63,0,1.8Z"></path>
      <path class="cls-67" d="M73.57,7.87c3.01,2.04,4.65,3.53,7.2,6l.6,1.2v.6c-1.53-1.62-7.12-6-9-7.2,1.11.1,1.51-.1,1.2-.6Z"></path>
      <path class="cls-25" d="M89.77,26.47c.34.94.31,1.1-.6.6-.88-1.7-3.68-6.26-4.8-7.8-.69-.84-.39-1.16.6-.6,2.56,3.41,2.89,4.07,4.8,7.8Z"></path>
      <path class="cls-19" d="M92.77,33.07l.6.6c.13.46-.09,1.25,0,1.8-2.75-2.37-2.48-5.06-4.2-8.4l.6-.6c1.3,2.54,1.99,3.58,3,6.6Z"></path>
      <path class="cls-77" d="M32.17,3.07c.69-.11.88-.09.6.6-2.14.69-4.37,2.17-6.93,2.97-1.09.34-1.65,1.41-1.47-.57,1.72-1.59,5.65-2.32,7.8-3Z"></path>
      <path class="cls-41" d="M51.97,94.28c.56-.41,1.07-.08,1.2.6-5.03.47-6.96.55-12,0,.94-.26,1.94-.46,3-.6,1.8-.19,6.04-.22,7.8,0Z"></path>
      <path class="cls-30" d="M86.77,75.08c-1.36,2.07-2.49,3.61-4.2,5.4l-1.2-.9c1.58-1.69,3.55-3.8,4.8-5.7,1.04-.63,1.24-.23.6,1.2Z"></path>
      <path class="cls-14" d="M2.78,34.87c-.7,2.65-1.19,5.84-1.32,8.6l-.48.4c-.28-.45-.48-1.05-.6-1.8.02-.2-.02-.4,0-.6v-.6c.06-.38-.07-.83,0-1.2l.6-1.8c.38-1.62.71-2.66,1.2-4.2.6-.6.8-.2.6,1.2Z"></path>
      <path class="cls-45" d="M76.57,85.28c-.18.22-.4.4-.6.6l-.6.6c-1.82,1.51-3.94,2.49-6,3.6-.72.5-1.01.22-.6-.6,1.82-.93,5.3-4.32,7.2-4.8.45.11.65.31.6.6Z"></path>
      <path class="cls-23" d="M68.17,90.68c.24.19.23.39,0,.6-.27.12-.91-.12-1.2,0l-1.2.6c-1.74.7-3.59,1.31-5.4,1.8-1.24.26-1.84.06-1.8-.6,2.77-1.02,5.71-1.81,8.4-3,.97-.18,1.37.02,1.2.6Z"></path>
      <path class="cls-9" d="M8.18,22.87c.13-.48-.09-1.24,0-1.8.79-1.19,1.37-2.46,2.4-3.6l.6-.6h.6c-.16.28-.02,1.41-.45,2.22-.63,1.21-2.08,2.86-3.15,3.78Z"></path>
      <path class="cls-78" d="M37.57,1.27c1.06.17,2.06.37,3,.6-2.05.28-5.78,1.15-7.8,1.8l-.6-.6c1.74-.55,3.52-1.54,5.4-1.8Z"></path>
      <path class="cls-22" d="M95.17,51.07c-.09,1.83-.35,4.37-1.2,6l-.6-1.2c.18-1.16.53-3.71.6-4.8h1.2Z"></path>
      <path class="cls-44" d="M89.77,70.28c-.43,1.81-2.03,3.32-3,4.8l-.6-1.2c.8-1.21,1.72-2.89,2.4-4.2.4-1.03.96-.29,1.2.6Z"></path>
      <path class="cls-57" d="M65.77,3.67c.52.17.52.37,0,.6-1.25-.21-1.65-.01-1.2.6-1.57-.61-3.17-1.34-4.8-1.8-.85-.53-1.15-1.12,0-1.2,1.82.29,4.14,1.23,6,1.8Z"></path>
      <path class="cls-36" d="M3.98,64.28c.29,1.03.83,2.43,1.2,3.6.1.32-.1.88,0,1.2-1.72-1.38-1.79-3.7-2.4-5.4-.6-2.17.7-1.11,1.2.6Z"></path>
      <path class="cls-20" d="M83.17,16.27c.85.98,1.13,1.51,1.8,2.4l-.6.6c-.35-.48-2.58-3.16-3-3.6.17-.26.37-.24.6,0l1.2.6Z"></path>
      <path class="cls-42" d="M70.57,6.07c.39.21.82.38,1.2.6l.6.6c.37.23.84.35,1.2.6,1.21,1.59.22,1.58-1.2.6-.83-.53-2.17-1.36-3-1.8-.36-.18-.35-.38,0-.6.12-.3.52-.3,1.2,0Z"></path>
      <path class="cls-16" d="M66.97,4.27c.19.06.42-.06.6,0l.6.6c.41.16.8.41,1.2.6.36.18.35.38,0,.6v.6c-.93-.5-3.08-1.35-4.2-1.8-.85-.61-.65-.81.6-.6.37-.38.78-.3,1.2,0Z"></path>
      <path class="cls-65" d="M77.77,84.68c-2.25-1.74,4.57-5.22,2.4-2.4-.82.71-1.08,1.53-2.4,2.4Z"></path>
      <path class="cls-10" d="M3.98,64.28c-.62-.67-.74-1.95-1.2-.6-.5-1.4-.79-2.02-1.2-3.6l1.2-.6c.37,1.6.76,3.23,1.2,4.8Z"></path>
      <path class="cls-11" d="M4.58,30.67c-.42,1.11-1.5,3.08-1.8,4.2l-.6-1.2c.1-.33-.11-.89,0-1.2l.6-1.2c.17-.45.58-.56.6-.6h1.2Z"></path>
      <path class="cls-15" d="M14.18,80.48c.09.32-.06.82,0,1.2-1.38-1.37-1.58-2.04-2.4-3h.6c.73.35,1.58,1.02,1.8,1.8Z"></path>
      <path class="cls-38" d="M58.57,93.08l1.8.6c-.64.17-1.29.48-1.8.6-1.13-.02-2.11.4-1.8-.89.16-.69,1.3-.12,1.8-.31Z"></path>
      <path class="cls-55" d="M42.37,94.28c.6,0,1.2,0,1.8,0-.51.05-1.87,1.17-3,.6-.58-.06-1.24.09-1.8,0,.5-.94,2.04-.6,3-.6Z"></path>
      <path class="cls-68" d="M68.77,89.48l.6.6c-.21.11-.38.49-.6.6h-.6l-1.2-.6c.69-.31,1.56-.48,1.8-.6Z"></path>
      <path class="cls-4" d="M58.57,1.87c.38,0,.84-.06,1.2,0v1.2c-.19-.05-.41.05-.6,0l-1.2-.6c-.58-.05-1.23.08-1.8,0,.42-.9,1.61-.59,2.4-.6Z"></path>
      <path class="cls-21" d="M.98,43.87c.03.6-.02,1.2,0,1.8-.07-.49-1.18-1.82-.6-3,.01-.2-.02-.4,0-.6.79.29.57,1.14.6,1.8Z"></path>
      <path class="cls-64" d="M38.77,1.27c.78.04,1.8-.3,1.8.6l-2.6-.12-.4-.48c.4.01.8-.02,1.2,0Z"></path>
      <path class="cls-37" d="M89.77,69.68c0,.18.04.43,0,.6l-1.2-.6c.21-.4.41-.8.6-1.2.58.19.58.67.6,1.2Z"></path>
      <path class="cls-29" d="M53.77,94.88c-.2.02-.4-.02-.6,0-.45.05-1.02-.58-1.2-.6.34-1.3,1.54-.34,1.8.6Z"></path>
      <path class="cls-66" d="M93.97,57.08c.02.19,0,.41,0,.6l-.6-1.2c.04-.19-.03-.4,0-.6.59.19.54.69.6,1.2Z"></path>
      <path class="cls-7" d="M.38,39.67c.18-1,.54-1.53.6-1.8l-.6,1.8Z"></path>
      <path class="cls-7" d="M80.77,13.87c1.09,1.05,1.2,1.01,2.4,2.4-.4-.2-.8-.41-1.2-.6-.36-.08-.6-.18-.6-.6-.24-.36-.37-.83-.6-1.2Z"></path>
      <path class="cls-7" d="M66.97,4.27c-.31-.09-.82.06-1.2,0v-.6c.45.14.94.08,1.2.6Z"></path>
      <path class="cls-7" d="M70.57,6.07h-1.2v-.6c.43.2.79.38,1.2.6Z"></path>
      <path class="cls-50" d="M77.17,85.28c-.12.05-.41,0-.6,0-.33-.01-.55-.28-.6-.6.4-.1,1.26.02,1.2.6Z"></path>
      <path class="cls-7" d="M66.97,91.28c-.31.13-.66.38-1.2.6l1.2-.6Z"></path>
      <path class="cls-7" d="M2.18,32.47c.22-.65.52-.99.6-1.2l-.6,1.2Z"></path>
      <path class="cls-7" d="M93.37,33.67l-.6-.6s.46.12.6.6Z"></path>
      <path class="cls-7" d="M72.37,7.27l-.6-.6c.26.15.42.49.6.6Z"></path>
      <path class="cls-7" d="M68.17,4.87l-.6-.6c.44.15.56.58.6.6Z"></path>
      <path class="cls-7" d="M.38,41.47s-.08-.07,0-.6v.6Z"></path>
      <path class="cls-50" d="M75.37,86.48l.6-.6c-.2.2-.38.42-.6.6Z"></path>
      <path class="cls-7" d="M10.58,17.47l.6-.6c-.16.24-.41.39-.6.6Z"></path>
      <path class="cls-7" d="M68.17,91.28v-.6h.6c-.15.08-.32.47-.6.6Z"></path>
      <path class="cls-74" d="M68.17,25.27c13.26,12.48,12.98,33.97-1.2,45.6-1.55.67-1.82-.11-.6-1.2l-.17-1.47c3.89-4.03,6.42-9.29,7.81-14.69l1.36-.65-.92-1.83c1.43-8.46-1.42-16.41-7.26-22.58l-.22-2c-1.62.42-1.7.05-.6-1.2-.54-1.48.81-.71,1.8,0Z"></path>
      <path class="cls-1" d="M68.17,25.27c-.91-.54-1.12-.21-1.8,0-.14.54-.34.53-.6,0l-1.78.03c-6.88-5.54-15.69-6.44-24.02-5.43-.07.52-.67.52-1.8,0-2.49,2.53-7.31,5.43-10.8,6-1.15-.06-1.09-.38-.6-1.2.21-.19.39-.42.6-.6l.6-.6c12.37-9.7,28.78-8.95,40.2,1.8Z"></path>
      <path class="cls-18" d="M66.97,70.88c-8.01,6.57-15.63,8.26-25.8,6.6.49-.54,1.09-.94,1.8-1.2l1.53-1.09c4.64.33,9.27-.52,13.5-2.43l1.77.52c-.48-1.48.32-1.88,2.4-1.2-.78-1.7,2.82-3.49,4.2-2.4l.6,1.2Z"></path>
      <path class="cls-2" d="M25.57,67.28c1.95.16,3.94,1.2,5.99,3.12,2.66,1.01,4.46,2.37,5.41,4.08.68-1.15,1.68-.75,3,1.2.53-1.67,3.06-1.08,3,.6.28,1.6-.38,1.22-1.8,1.2-7.64-1.24-11.71-4.09-16.8-9.6-.38-.83.65-1.58,1.2-.6Z"></path>
      <path class="cls-13" d="M19.58,37.27l.96.98c-1.05,4.5-1.32,9.21-1.04,13.82l-1.12.8-1.2.6c-1.11-6.97-1.07-9.39,1.2-16.2.54-.99.99-1.18,1.2,0Z"></path>
      <path class="cls-8" d="M27.37,25.87c.02.41.42.81,1.2,1.2.52.17.52.37,0,.6-.06,1.04-1.15,1.8-3.26,2.29l-4.38,7.22-1.36.1h-1.2c1.94-5.82,3.92-8.44,8.4-12.6.6-.05.67.76.6,1.2Z"></path>
      <path class="cls-52" d="M22.57,63.08l1.2,1.8c.56-.17.76.04.6.6,1.06,2.19-.4,2.05-1.8.6-1.61-2.1-3.93-5.97-4.8-8.4l-.6-2.4c-.11-.52.09-1.24,0-1.8-.05-.94.56-.91,1.2-.6l1.28.35c.76,3.06,2.16,5.95,3.66,8.72l-.73,1.13Z"></path>
      <path class="cls-35" d="M25.57,67.28l-1.2.6c-.57-.62-1.08-.86-1.8-1.8,1.24.88,2.08,1.06,1.8-.6,1.66-.63,2.24.41,1.2,1.8Z"></path>
      <path class="cls-12" d="M17.78,57.68c-.41-1.15-.37-1.36-.6-2.4l.6,2.4Z"></path>
      <path class="cls-27" d="M65.77,4.27l-.6.6c-.17-.07-.43.07-.6,0-1.4-2.31.24-.74,1.2-.6Z"></path>
      <path class="cls-57" d="M59.17,3.07c-.45-.13-1,0-1.2-.6.51.05,1.03.01,1.2.6Z"></path>
      <path class="cls-17" d="M36.97,93.08l-.32.61-.88-.61c.34.09.84-.08,1.2,0Z"></path>
      <path class="cls-15" d="M12.38,78.08c-.22-.18-.43-.38-.6-.6l.6.6Z"></path>
      <path class="cls-48" d="M27.37,24.07c.21-.18.38-.43.6-.6l-.6.6Z"></path>
      <path class="cls-15" d="M15.38,81.08l-.6-.6c.28.12.41.39.6.6Z"></path>
      <path class="cls-10" d="M2.18,58.28c.28.28-.56.96-.6.3-.01-.21.47-.43.6-.3Z"></path>
      <path class="cls-43" d="M81.97,15.67c-.15-.07-.41.05-.6,0v-.6c.13.2.46.35.6.6Z"></path>
      <path class="cls-12" d="M65.77,25.27l-.15.87c-10.58,4.85-9.23,17.02-1.65,23.73,1.45.66,2.85,1.46,4.2,2.4,1.54.55,4.35.96,4.76-.88,1.48-.24,2.63-.28,2.44,1.48-1.01,5.52-4.88,13.33-9,16.8-.71.6-3.1,1.74-4.2,2.4l-1.92.11c-2.63-4.87-7.77-7.22-13.08-6.71h-1.2l-.12.66c-4.13,1.46-6.2,4.75-8,8.47l-.88-.13c-3.83-1.46-8.5-4.31-11.4-7.2-.22-.22-.73-1.23-1.2-1.8-.18-.22-.44-.38-.6-.6l-1.2-1.8c-1.45-2.47-3.83-7.49-4.2-10.2-.51-3.76-.01-11.98,1.2-15.6.38-1.14,4.35-7.78,5.1-8.4.7-.58,2.82-.95,3.9-1.2,2.36-.98,4.76-1.78,7.2-2.4-.17-1.05,1.97-2.95,3-2.4l.6-1.2c-.1-.37-.2-1.68.6-1.8.25-.03.39-1.06,1.49-1.24,8.11-1.32,18.27.94,24.31,6.64Z"></path>
      <path class="cls-60" d="M66.97,26.47c7.45,7.79,10.41,15.46,8.4,26.4-1.74-1.27-5.23,1.29-7.2-.6.45-.47,2.59-.36,3.44-.21.4.07-7.51-.11-7.04-2.79-6.96-3.38-8.93-14.19-3.45-20,1.36-1.45,4.1-3.86,5.85-2.8Z"></path>
      <path class="cls-58" d="M66.97,26.47c-10.85,3.26-10.66,16.66-2.4,22.8.8.84.46,1.15-.6.6-2.02-1.73-3.8-3.02-5.22-5.87-3.5-7.02-.38-15.9,7.02-18.73.17-.06.41.06.6,0,.24.34.35.94.6,1.2Z"></path>
      <path class="cls-48" d="M38.17,19.87c.8-.17,1.11-.05.6.6.28,1.76-2.49,4.27-4.2,4.2-.33,1.66-4.22,2.52-6,2.4-.59.06-1.21-.03-1.8,0-.22-.61.58-1.05.6-1.2,3.38-2.87,6.69-4.55,10.8-6Z"></path>
      <path class="cls-76" d="M39.97,19.87c.24.87-.33,1.25-.6,1.8l-.6,1.2c-.46.55-2.29,1.95-3,2.4-1.25.45-1.65.25-1.2-.6.7-.47,3.99-3.6,4.2-4.2q.23.18,0,0c.12-.35-.19-.68-.6-.6,1.49-.53,1.47.04,1.8,0Z"></path>
      <path class="cls-60" d="M48.97,66.08c1.52-1.4,5.73.48,7.44,1.69,1.3.92,5.04,4.42,3.36,5.51-5.68,2.67-10.34,3.58-16.8,3-.49-.04-2.32-.45-3-.6-3.33-.43-.57-4.68.95-6.17,1.82-1.79,4.11-3.77,6.85-3.43.12-.56.74-.32,1.2,0Z"></path>
      <path class="cls-5" d="M47.17,65.48c2.53-1.67,8.04.44,10.18,2.12,1.48,1.16,2.7,4,4.82,4.48-1.05.62-1.4.73-2.4,1.2-1.14-4.36-6.54-7.27-10.8-7.2l-1.8-.6Z"></path>
      <path class="cls-2" d="M45.97,76.88v.59c-2.5.3-2.5-.89,0-.59Z"></path>
      <path class="cls-51" d="M45.97,65.48c.83-.02,1.43.18,1.8.6-1.51.29-5.55,2.61-6.61,3.89-.81.97-3.62,5.15-1.19,5.71-1.44-.32-1.94-.8-3-1.2l4.49-6.61c1.44-.75,2.91-2.07,4.51-2.39Z"></path>
      <path class="cls-24" d="M18.38,52.87c.03.29-.01.48-.31.59h-.89s0-1.79,0-1.79h.59c-.13.5.58.95.61,1.2Z"></path>
      <path class="cls-34" d="M34.57,24.67l1.2.6c-3.27,2.09-3.94,1.63-7.2,2.4v-.6c1.46-.15,4.77-1.58,6-2.4Z"></path>
      <path class="cls-39" d="M23.77,64.88c-.5-.68-.76-1.06-1.2-1.8l1.2,1.8Z"></path>
      <path class="cls-72" d="M38.77,38.47c1.25.43,1.85,1.03,1.8,1.8,1.34.53,2.76,1.47,2.4,3,1.13.36,1.59,2.25.6,3,.48.89.88,1.29,1.2,1.2-.4,1.81-1.14,2.91-2.4,4.2-.75.23-1.55.43-2.4.6-1.2,2.21-7.07,1.09-8.73-.47-.07-.07,1.75.05-.27.47-.75-.61-.78-1.15-1.2-1.8-.64-1.74-.84-3.34-.6-4.8-.49-1.05.02-2.65.6-3.6,1.4-3.3,5.63-5.5,9-3.6Z"></path>
      <path class="cls-69" d="M39.37,38.47c-.15.45-.35.43-.6,0-4.65-.32-5.78.49-9,3.6-.17.52-.37.52-.6,0,2.1-4.08,5.91-6.76,10.2-3.6Z"></path>
      <path class="cls-6" d="M39.97,52.27c.96-.19.96.21,0,1.2-2.7,1.15-6.72.67-9-1.2-.15-2.09.37-.83,1.38-.48,3.2,1.11,4.08,1.63,7.62.48Z"></path>
      <path class="cls-28" d="M27.76,59.56c4.25-1.36,4.34,4.5.63,3.42-1.54-.45-2.44-2.85-.63-3.42Z"></path>
      <path class="cls-53" d="M56.17,52.88l-.59,2.39c1.33.15-.26-2.22,1.49-1.8,2.27.54-4.02,6.57-3.29-.6h2.4Z"></path>
      <path class="cls-31" d="M64.57,49.27c2.73,2.03,4.88,2.84,8.4,2.41-.52,1.07-3.76.67-4.8.59-3.19-.24-2.04-.54-4.2-2.4l.6-.6Z"></path>
      <path class="cls-56" d="M45.37,27.07c.96-1.04,3.14-.53,3,1.8-.8,1.24-2.84,2.73-2.4.6q.32-.6,0,0c-.95.32-1.15-.48-.6-2.4Z"></path>
      <path class="cls-73" d="M45.97,29.47c1.07,1.34,1,.29,1.59-.6h.81c-.01.2.05.44,0,.6l-.6.6c-2.42,2.89-4.32-.92-2.4-3,.72.76-.36,1.2.6,2.4Z"></path>
      <path class="cls-49" d="M29.77,42.07c.63,1.2-.58,3.12-.6,3.6-.17.52-.37.52-.6,0-.03-2.06-.56-1.34.6-3.6h.6Z"></path>
      <path class="cls-63" d="M29.77,50.47c-.14-.22-.51-.4-.6-.6l-.6-1.8c-.12-.66.01-1.65,0-2.4h.6c-.06,1.88,1.68,3.72.6,4.8Z"></path>
      <path class="cls-59" d="M42.97,40.87c.41.53.36,1.35.6,1.8.61.86.35,1.17-.6.6-.2-.43-1.93-2.49-2.4-3,.17-.52.37-.52.6,0,.22-.46.82-.26,1.8.6Z"></path>
      <path class="cls-61" d="M44.17,43.27l.6,1.8c.03.19,0,.4,0,.6-.07.35-.2.6-.6.6-.17.52-.37.52-.6,0-.15-.93-.2-2.16-.6-3l.6-.6c.11.21.52.39.6.6Z"></path>
      <path class="cls-70" d="M41.17,39.07c.56.72.56,1.12,0,1.2h-.6c-.48-.51-1.57-.8-1.8-1.8.2.01.41-.03.6,0,.65.1,1.23.27,1.8.6Z"></path>
      <path class="cls-56" d="M42.37,51.67c-.4.41-1.92,1.59-2.4,1.8v-1.2c.4-.13,1.9-2.2,2.4-.6Z"></path>
      <path class="cls-47" d="M47.17,65.48c.66,0,1.51-.16,1.8.6-.39,0-.86-.06-1.2,0l-1.8-.6c.33-.07.81,0,1.2,0Z"></path>
      <path class="cls-26" d="M44.77,46.27c-.03.39.07.86,0,1.2l-1.19.6c-.07-.58.08-1.24,0-1.8h1.2Z"></path>
      <path class="cls-72" d="M29.17,49.87c-.38-.85-.4-.74-.6-1.8l.6,1.8Z"></path>
      <path class="cls-72" d="M44.77,45.07l-.6-1.8c.29.74.41.69.6,1.8Z"></path>
      <path class="cls-72" d="M41.17,39.07c.12.07,1.64,1.59,1.8,1.8l-1.8-.6v-1.2Z"></path>
      <path class="cls-48" d="M38.77,22.87l.6-1.2c-.21.43-.15.66-.6,1.2Z"></path>
      <path class="cls-72" d="M44.77,46.27h-.6l.6-.6c0,.2.01.41,0,.6Z"></path>
      <path class="cls-56" d="M47.77,30.07l.6-.6c-.06.21-.44.41-.6.6Z"></path>
      <path class="cls-1" d="M38.77,20.47c.28-.28.96.56.3.6-.21.01-.43-.47-.3-.6Z"></path>
      <path class="cls-62" d="M29.77,62.47c-1.06,1.21-2.38-2.38-.9-2.39.6,0,1.27,1.96.9,2.39Z"></path>
      <path class="cls-12" d="M45.97,29.47c-.43-.47.33-1.75.59-1.2.3.63-.3,1.51-.59,1.2Z"></path>
    </g>
  </g>
</svg><style>@media (prefers-color-scheme: light) { :root { filter: none; } }
@media (prefers-color-scheme: dark) { :root { filter: none; } }
</style></svg>